<?xml version="1.0" encoding="UTF-8" standalone="no"?>
<svg
   xmlns:dc="http://purl.org/dc/elements/1.1/"
   xmlns:cc="http://creativecommons.org/ns#"
   xmlns:rdf="http://www.w3.org/1999/02/22-rdf-syntax-ns#"
   xmlns:svg="http://www.w3.org/2000/svg"
   xmlns="http://www.w3.org/2000/svg"
   id="svg3328"
   version="1.1"
   viewBox="0 0 10.463162 10.463223"
   height="10.463223mm"
   width="10.463162mm">
  <defs
     id="defs3322">
    <clipPath
       clipPathUnits="userSpaceOnUse"
       id="clipPath1358">
      <path
         d="m 1378.88,671.26 h 23 v -23.321 h -23 z"
         id="path1356" />
    </clipPath>
  </defs>
  <metadata
     id="metadata3325">
    <rdf:RDF>
      <cc:Work
         rdf:about="">
        <dc:format>image/svg+xml</dc:format>
        <dc:type
           rdf:resource="http://purl.org/dc/dcmitype/StillImage" />
        <dc:title></dc:title>
      </cc:Work>
    </rdf:RDF>
  </metadata>
  <g
     transform="translate(-105.89342,-95.310051)"
     id="layer1">
    <g
       id="g1348"
       transform="matrix(0.35277777,0,0,-0.35277777,116.35496,100.67109)">
      <path
         d="m 0,0 c -0.202,-8.188 -7.004,-14.661 -15.192,-14.458 -8.188,0.202 -14.662,7.004 -14.458,15.192 0.202,8.187 7.004,14.661 15.191,14.458 C -6.271,14.99 0.202,8.188 0,0"
         style="fill:#de0a69;fill-opacity:1;fill-rule:nonzero;stroke:none"
         id="path1350" />
    </g>
    <g
       transform="matrix(0.35277777,0,0,-0.35277777,-380.54562,334.35175)"
       id="g1352">
      <g
         id="g1354" />
      <g
         id="g1366">
        <g
           clip-path="url(#clipPath1358)"
           opacity="0.600006"
           id="g1364">
          <g
             transform="translate(1387.418,671.2554)"
             id="g1362">
            <path
               d="m 0,0 c -2.419,0.06 -4.716,-0.463 -6.759,-1.44 -1.077,-1.992 -1.713,-4.261 -1.772,-6.68 -0.203,-8.188 6.27,-14.989 14.458,-15.192 2.419,-0.06 4.717,0.463 6.759,1.441 1.077,1.991 1.712,4.26 1.773,6.679 C 14.661,-7.004 8.188,-0.203 0,0"
               style="fill:#bc094f;fill-opacity:1;fill-rule:nonzero;stroke:none"
               id="path1360" />
          </g>
        </g>
      </g>
    </g>
    <g
       id="g1368"
       transform="matrix(0.35277777,0,0,-0.35277777,113.92616,100.96584)">
      <path
         d="m 0,0 h -17.568 c -0.578,0 -1.046,0.468 -1.046,1.045 0,0.578 0.468,1.046 1.046,1.046 H 0 C 0.577,2.091 1.045,1.623 1.045,1.045 1.045,0.468 0.577,0 0,0"
         style="fill:#f8f8f8;fill-opacity:1;fill-rule:nonzero;stroke:none"
         id="path1370" />
    </g>
    <g
       id="g1372"
       transform="matrix(0.35277777,0,0,-0.35277777,112.15539,103.17932)">
      <path
         d="m 0,0 c -0.268,0 -0.536,0.102 -0.74,0.306 -0.408,0.408 -0.408,1.07 0,1.479 l 5.535,5.535 -5.849,5.848 c -0.408,0.409 -0.408,1.071 0,1.479 0.408,0.409 1.071,0.409 1.48,0 L 7.753,7.32 0.739,0.306 C 0.535,0.102 0.268,0 0,0"
         style="fill:#f8f8f8;fill-opacity:1;fill-rule:nonzero;stroke:none"
         id="path1374" />
    </g>
  </g>
</svg>
