<?xml version="1.0" encoding="UTF-8" standalone="no"?>
<svg
   xmlns:dc="http://purl.org/dc/elements/1.1/"
   xmlns:cc="http://creativecommons.org/ns#"
   xmlns:rdf="http://www.w3.org/1999/02/22-rdf-syntax-ns#"
   xmlns:svg="http://www.w3.org/2000/svg"
   xmlns="http://www.w3.org/2000/svg"
   id="svg3540"
   version="1.1"
   viewBox="0 0 18.848211 18.848211"
   height="18.848211mm"
   width="18.848211mm">
  <defs
     id="defs3534" />
  <metadata
     id="metadata3537">
    <rdf:RDF>
      <cc:Work
         rdf:about="">
        <dc:format>image/svg+xml</dc:format>
        <dc:type
           rdf:resource="http://purl.org/dc/dcmitype/StillImage" />
        <dc:title></dc:title>
      </cc:Work>
    </rdf:RDF>
  </metadata>
  <g
     transform="translate(-324.70684,-156.12947)"
     id="layer1">
    <g
       id="g314"
       transform="matrix(0.35277777,0,0,-0.35277777,334.13095,156.12947)">
      <path
         d="m 0,0 c 14.754,0 26.714,-11.96 26.714,-26.714 0,-14.754 -11.96,-26.714 -26.714,-26.714 -14.753,0 -26.714,11.96 -26.714,26.714 C -26.714,-11.96 -14.753,0 0,0"
         style="fill:#f20063;fill-opacity:1;fill-rule:nonzero;stroke:none"
         id="path316" />
    </g>
    <g
       id="g318"
       transform="matrix(0.35277777,0,0,-0.35277777,338.71671,160.40021)">
      <path
         d="m 0,0 h -25.998 c -0.888,0 -1.608,-0.721 -1.608,-1.609 v -25.998 c 0,-0.889 0.72,-1.609 1.608,-1.609 H -12 v 11.314 h -3.827 v 4.4 h 3.809 v 3.263 c 0,3.771 2.3,5.826 5.657,5.826 1.136,0.005 2.271,-0.053 3.401,-0.176 V -8.53 h -2.332 c -1.836,0 -2.188,-0.873 -2.188,-2.15 v -2.816 h 4.369 l -0.573,-4.4 h -3.771 v -11.313 h 7.449 c 0.888,0 1.609,0.72 1.609,1.608 V -1.609 C 1.603,-0.723 0.886,-0.003 0,0"
         style="fill:#ffffff;fill-opacity:1;fill-rule:nonzero;stroke:none"
         id="path320" />
    </g>
  </g>
</svg>
