<?xml version="1.0" encoding="UTF-8" standalone="no"?>
<svg
   xmlns:dc="http://purl.org/dc/elements/1.1/"
   xmlns:cc="http://creativecommons.org/ns#"
   xmlns:rdf="http://www.w3.org/1999/02/22-rdf-syntax-ns#"
   xmlns:svg="http://www.w3.org/2000/svg"
   xmlns="http://www.w3.org/2000/svg"
   id="svg5298"
   version="1.1"
   viewBox="0 0 62.447788 16.180866"
   height="16.180866mm"
   width="62.447788mm">
  <defs
     id="defs5292" />
  <metadata
     id="metadata5295">
    <rdf:RDF>
      <cc:Work
         rdf:about="">
        <dc:format>image/svg+xml</dc:format>
        <dc:type
           rdf:resource="http://purl.org/dc/dcmitype/StillImage" />
        <dc:title></dc:title>
      </cc:Work>
    </rdf:RDF>
  </metadata>
  <g
     transform="translate(-252.25825,-119.66552)"
     id="layer1">
    <g
       style="font-style:normal;font-variant:normal;font-weight:bold;font-stretch:normal;font-size:22.7579px;font-family:Morganite;-inkscape-font-specification:'Morganite Bold';writing-mode:lr-tb;fill:#f20063;fill-opacity:1;fill-rule:nonzero;stroke:none;stroke-width:0.352777"
       id="text4904"
       aria-label="27/05 12H00">
      <path
         id="path5308"
         style="stroke-width:0.352777"
         d="m 252.25825,126.19704 v -4.09643 q 0,-0.63722 0.20482,-1.09237 0.20482,-0.47792 0.52343,-0.77377 0.34137,-0.29586 0.75101,-0.4324 0.4324,-0.13655 0.88756,-0.13655 h 0.22758 q 0.4324,0 0.8648,0.13655 0.4324,0.13654 0.77377,0.4324 0.34137,0.29585 0.54619,0.77377 0.20482,0.45515 0.20482,1.09237 v 2.38958 q 0,0.79653 -0.20482,1.45651 -0.20482,0.63722 -0.50068,1.27444 -0.29585,0.61447 -0.65998,1.25169 -0.36412,0.63722 -0.65997,1.43374 -0.29586,0.77377 -0.50068,1.7296 -0.20482,0.95584 -0.20482,2.18476 h 2.93577 v 1.88891 h -5.1888 v -1.88891 q 0,-1.43374 0.20482,-2.48061 0.20482,-1.06962 0.50067,-1.8889 0.29586,-0.81929 0.65998,-1.45651 0.36413,-0.63722 0.65998,-1.22893 0.29585,-0.61446 0.50067,-1.22892 0.20483,-0.63722 0.20483,-1.41099 v -1.68409 q 0,-0.50067 -0.0683,-0.68273 -0.0683,-0.20483 -0.25033,-0.20483 h -0.0455 q -0.18206,0 -0.25034,0.20483 -0.0683,0.18206 -0.0683,0.65998 v 3.77781 z" />
      <path
         id="path5310"
         style="stroke-width:0.352777"
         d="m 257.99325,135.70984 2.18476,-14.22369 h -2.25304 v -1.68408 h 4.52883 v 1.68408 l -2.20752,14.22369 z" />
      <path
         id="path5312"
         style="stroke-width:0.352777"
         d="m 266.29989,119.80207 h 1.91166 l -3.55023,15.90777 h -1.88891 z" />
      <path
         id="path5314"
         style="stroke-width:0.352777"
         d="m 270.897,135.84639 q -0.45516,0 -0.88756,-0.13655 -0.40964,-0.13655 -0.75101,-0.4324 -0.31861,-0.29585 -0.52343,-0.75101 -0.20483,-0.47792 -0.20483,-1.11514 v -11.31068 q 0,-0.63722 0.20483,-1.09237 0.20482,-0.47792 0.52343,-0.77377 0.34137,-0.29586 0.75101,-0.4324 0.4324,-0.13655 0.88756,-0.13655 h 0.45515 q 0.4324,0 0.8648,0.13655 0.4324,0.13654 0.75102,0.4324 0.34136,0.29585 0.54619,0.77377 0.20482,0.45515 0.20482,1.09237 v 11.31068 q 0,0.63722 -0.20482,1.11514 -0.20483,0.45516 -0.54619,0.75101 -0.31862,0.29585 -0.75102,0.4324 -0.4324,0.13655 -0.8648,0.13655 z m 0.20482,-14.29197 q -0.31861,0 -0.31861,0.88756 v 10.62794 q 0,0.47792 0.0683,0.68274 0.0683,0.20482 0.25034,0.20482 h 0.0455 q 0.18207,0 0.25034,-0.20482 0.0683,-0.20482 0.0683,-0.68274 v -10.62794 q 0,-0.88756 -0.31861,-0.88756 z" />
      <path
         id="path5316"
         style="stroke-width:0.352777"
         d="m 276.63201,135.84639 q -0.45516,0 -0.88756,-0.13655 -0.40964,-0.13655 -0.75101,-0.4324 -0.31861,-0.29585 -0.52343,-0.75101 -0.20482,-0.47792 -0.20482,-1.11514 v -4.324 h 2.25303 v 3.98263 q 0,0.47792 0.0683,0.68274 0.0683,0.20482 0.25033,0.20482 h 0.0455 q 0.18206,0 0.25034,-0.20482 0.0683,-0.20482 0.0683,-0.68274 v -4.64261 q 0,-0.50067 -0.0683,-0.68274 -0.0683,-0.20482 -0.25034,-0.20482 h -0.0455 q -0.18206,0 -0.25033,0.13655 -0.0455,0.13655 -0.0683,0.47792 v 0.45515 h -2.25303 v -8.8073 h 5.1888 l -0.20482,1.8889 h -2.73095 v 4.73365 q 0.25034,-0.38689 0.56895,-0.56895 0.34137,-0.20482 0.68274,-0.20482 h 0.13654 q 0.29586,0 0.56895,0.13654 0.2731,0.13655 0.47792,0.4324 0.22758,0.29586 0.36412,0.77377 0.13655,0.45516 0.13655,1.09238 v 5.32535 q 0,0.63722 -0.20482,1.11514 -0.20482,0.45516 -0.54619,0.75101 -0.31861,0.29585 -0.75101,0.4324 -0.4324,0.13655 -0.8648,0.13655 z" />
      <path
         id="path5318"
         style="stroke-width:0.352777"
         d="m 289.46747,135.70984 v -12.49409 q -0.31861,0.0228 -0.77377,0.0455 -0.45516,0.0228 -0.77377,0.0228 v -1.77512 q 0.34137,0 0.68274,-0.11379 0.34137,-0.13655 0.61446,-0.36413 0.2731,-0.22758 0.45516,-0.54619 0.18206,-0.31861 0.18206,-0.68273 h 1.86615 v 15.90777 z" />
      <path
         id="path5320"
         style="stroke-width:0.352777"
         d="m 292.31222,126.19704 v -4.09643 q 0,-0.63722 0.20482,-1.09237 0.20482,-0.47792 0.52343,-0.77377 0.34137,-0.29586 0.75101,-0.4324 0.4324,-0.13655 0.88756,-0.13655 h 0.22758 q 0.4324,0 0.8648,0.13655 0.4324,0.13654 0.77377,0.4324 0.34137,0.29585 0.54619,0.77377 0.20482,0.45515 0.20482,1.09237 v 2.38958 q 0,0.79653 -0.20482,1.45651 -0.20482,0.63722 -0.50068,1.27444 -0.29585,0.61447 -0.65998,1.25169 -0.36412,0.63722 -0.65997,1.43374 -0.29586,0.77377 -0.50068,1.7296 -0.20482,0.95584 -0.20482,2.18476 h 2.93577 v 1.88891 h -5.1888 v -1.88891 q 0,-1.43374 0.20482,-2.48061 0.20482,-1.06962 0.50067,-1.8889 0.29586,-0.81929 0.65998,-1.45651 0.36413,-0.63722 0.65998,-1.22893 0.29585,-0.61446 0.50068,-1.22892 0.20482,-0.63722 0.20482,-1.41099 v -1.68409 q 0,-0.50067 -0.0683,-0.68273 -0.0683,-0.20483 -0.25033,-0.20483 h -0.0455 q -0.18206,0 -0.25034,0.20483 -0.0683,0.18206 -0.0683,0.65998 v 3.77781 z" />
      <path
         id="path5322"
         style="stroke-width:0.352777"
         d="m 303.23604,119.80207 v 15.90777 H 300.983 v -7.10047 h -0.68273 v 7.10047 h -2.25304 v -15.90777 h 2.25304 v 7.12322 h 0.68273 v -7.12322 z" />
      <path
         id="path5324"
         style="stroke-width:0.352777"
         d="m 306.14904,135.84639 q -0.45516,0 -0.88756,-0.13655 -0.40964,-0.13655 -0.75101,-0.4324 -0.31861,-0.29585 -0.52343,-0.75101 -0.20482,-0.47792 -0.20482,-1.11514 v -11.31068 q 0,-0.63722 0.20482,-1.09237 0.20482,-0.47792 0.52343,-0.77377 0.34137,-0.29586 0.75101,-0.4324 0.4324,-0.13655 0.88756,-0.13655 h 0.45516 q 0.4324,0 0.8648,0.13655 0.4324,0.13654 0.75101,0.4324 0.34137,0.29585 0.54619,0.77377 0.20482,0.45515 0.20482,1.09237 v 11.31068 q 0,0.63722 -0.20482,1.11514 -0.20482,0.45516 -0.54619,0.75101 -0.31861,0.29585 -0.75101,0.4324 -0.4324,0.13655 -0.8648,0.13655 z m 0.20482,-14.29197 q -0.31861,0 -0.31861,0.88756 v 10.62794 q 0,0.47792 0.0683,0.68274 0.0683,0.20482 0.25033,0.20482 h 0.0455 q 0.18206,0 0.25033,-0.20482 0.0683,-0.20482 0.0683,-0.68274 v -10.62794 q 0,-0.88756 -0.31861,-0.88756 z" />
      <path
         id="path5326"
         style="stroke-width:0.352777"
         d="m 311.88406,135.84639 q -0.45516,0 -0.88756,-0.13655 -0.40964,-0.13655 -0.75101,-0.4324 -0.31861,-0.29585 -0.52343,-0.75101 -0.20482,-0.47792 -0.20482,-1.11514 v -11.31068 q 0,-0.63722 0.20482,-1.09237 0.20482,-0.47792 0.52343,-0.77377 0.34137,-0.29586 0.75101,-0.4324 0.4324,-0.13655 0.88756,-0.13655 h 0.45516 q 0.4324,0 0.8648,0.13655 0.4324,0.13654 0.75101,0.4324 0.34136,0.29585 0.54619,0.77377 0.20482,0.45515 0.20482,1.09237 v 11.31068 q 0,0.63722 -0.20482,1.11514 -0.20483,0.45516 -0.54619,0.75101 -0.31861,0.29585 -0.75101,0.4324 -0.4324,0.13655 -0.8648,0.13655 z m 0.20482,-14.29197 q -0.31861,0 -0.31861,0.88756 v 10.62794 q 0,0.47792 0.0683,0.68274 0.0683,0.20482 0.25034,0.20482 h 0.0455 q 0.18207,0 0.25034,-0.20482 0.0683,-0.20482 0.0683,-0.68274 v -10.62794 q 0,-0.88756 -0.31861,-0.88756 z" />
    </g>
  </g>
</svg>
