<?xml version="1.0" encoding="UTF-8" standalone="no"?>
<svg
   xmlns:dc="http://purl.org/dc/elements/1.1/"
   xmlns:cc="http://creativecommons.org/ns#"
   xmlns:rdf="http://www.w3.org/1999/02/22-rdf-syntax-ns#"
   xmlns:svg="http://www.w3.org/2000/svg"
   xmlns="http://www.w3.org/2000/svg"
   id="svg3434"
   version="1.1"
   viewBox="0 0 18.848211 18.848211"
   height="18.848211mm"
   width="18.848211mm">
  <defs
     id="defs3428" />
  <metadata
     id="metadata3431">
    <rdf:RDF>
      <cc:Work
         rdf:about="">
        <dc:format>image/svg+xml</dc:format>
        <dc:type
           rdf:resource="http://purl.org/dc/dcmitype/StillImage" />
        <dc:title></dc:title>
      </cc:Work>
    </rdf:RDF>
  </metadata>
  <g
     transform="translate(-233.99256,-179.56399)"
     id="layer1">
    <g
       id="g322"
       transform="matrix(0.35277777,0,0,-0.35277777,243.41667,179.56399)">
      <path
         d="m 0,0 c 14.754,0 26.714,-11.96 26.714,-26.714 0,-14.754 -11.96,-26.714 -26.714,-26.714 -14.753,0 -26.714,11.96 -26.714,26.714 C -26.714,-11.96 -14.753,0 0,0"
         style="fill:#f20063;fill-opacity:1;fill-rule:nonzero;stroke:none"
         id="path324" />
    </g>
    <g
       id="g326"
       transform="matrix(0.35277777,0,0,-0.35277777,243.41667,183.72173)">
      <path
         d="m 0,0 c -4.061,0 -4.569,0 -6.166,-0.088 -1.242,-0.026 -2.47,-0.262 -3.633,-0.698 -2.027,-0.772 -3.628,-2.373 -4.4,-4.4 -0.436,-1.163 -0.672,-2.391 -0.698,-3.633 -0.069,-1.596 -0.088,-2.105 -0.088,-6.166 0,-4.06 0,-4.57 0.088,-6.166 0.05,-1.226 0.305,-2.435 0.754,-3.577 0.772,-2.026 2.373,-3.627 4.4,-4.399 1.163,-0.437 2.392,-0.673 3.634,-0.698 1.596,-0.07 2.105,-0.088 6.166,-0.088 4.06,0 4.569,0 6.166,0.088 1.242,0.025 2.47,0.261 3.633,0.698 2.027,0.772 3.628,2.373 4.4,4.399 0.436,1.163 0.672,2.392 0.698,3.633 0.069,1.597 0.088,2.106 0.088,6.167 0,4.06 0,4.569 -0.088,6.166 -0.026,1.241 -0.262,2.47 -0.698,3.633 -0.772,2.027 -2.373,3.628 -4.4,4.4 C 8.693,-0.293 7.465,-0.057 6.223,-0.031 4.626,0.038 4.117,0.057 0.057,0.057 Z m 0,-2.671 c 3.992,0 4.469,0 6.047,-0.088 0.949,-0.009 1.89,-0.183 2.778,-0.516 1.301,-0.505 2.33,-1.534 2.835,-2.834 0.333,-0.89 0.507,-1.83 0.515,-2.779 0.076,-1.577 0.089,-2.055 0.089,-6.047 0,-3.991 0,-4.469 -0.089,-6.046 -0.008,-0.95 -0.182,-1.89 -0.515,-2.779 -0.505,-1.301 -1.534,-2.329 -2.835,-2.834 C 7.937,-26.927 6.996,-27.102 6.047,-27.11 4.469,-27.186 3.998,-27.198 0,-27.198 c -3.998,0 -4.469,0 -6.046,0.088 -0.95,0.008 -1.89,0.183 -2.779,0.516 -1.29,0.513 -2.307,1.544 -2.803,2.841 -0.333,0.889 -0.507,1.829 -0.516,2.778 -0.075,1.578 -0.087,2.055 -0.087,6.047 0,3.991 0,4.469 0.087,6.047 0.009,0.948 0.183,1.889 0.516,2.777 0.505,1.284 1.521,2.299 2.803,2.804 0.889,0.333 1.829,0.508 2.779,0.515 1.577,0.076 2.055,0.089 6.046,0.089"
         style="fill:#ffffff;fill-opacity:1;fill-rule:nonzero;stroke:none"
         id="path328" />
    </g>
    <g
       id="g330"
       transform="matrix(0.35277777,0,0,-0.35277777,243.41667,190.74645)">
      <path
         d="m 0,0 c -2.752,0 -4.984,2.231 -4.984,4.984 0,2.753 2.232,4.985 4.984,4.985 2.753,0 4.985,-2.232 4.985,-4.985 C 4.985,2.231 2.753,0 0,0 m 0,12.666 c -4.242,0 -7.681,-3.439 -7.681,-7.682 0,-4.242 3.439,-7.681 7.681,-7.681 4.242,0 7.681,3.439 7.681,7.681 0,4.243 -3.439,7.682 -7.681,7.682"
         style="fill:#ffffff;fill-opacity:1;fill-rule:nonzero;stroke:none"
         id="path332" />
    </g>
    <g
       id="g334"
       transform="matrix(0.35277777,0,0,-0.35277777,246.23289,185.53781)">
      <path
         d="m 0,0 c 0.993,0 1.798,-0.805 1.798,-1.797 0,-0.994 -0.805,-1.798 -1.798,-1.798 -0.993,0 -1.798,0.804 -1.798,1.798 C -1.798,-0.805 -0.993,0 0,0"
         style="fill:#ffffff;fill-opacity:1;fill-rule:nonzero;stroke:none"
         id="path336" />
    </g>
  </g>
</svg>
