<?xml version="1.0" encoding="UTF-8" standalone="no"?>
<svg
   xmlns:dc="http://purl.org/dc/elements/1.1/"
   xmlns:cc="http://creativecommons.org/ns#"
   xmlns:rdf="http://www.w3.org/1999/02/22-rdf-syntax-ns#"
   xmlns:svg="http://www.w3.org/2000/svg"
   xmlns="http://www.w3.org/2000/svg"
   id="svg5213"
   version="1.1"
   viewBox="0 0 92.184425 30.564484"
   height="30.564484mm"
   width="92.184425mm">
  <defs
     id="defs5207" />
  <metadata
     id="metadata5210">
    <rdf:RDF>
      <cc:Work
         rdf:about="">
        <dc:format>image/svg+xml</dc:format>
        <dc:type
           rdf:resource="http://purl.org/dc/dcmitype/StillImage" />
        <dc:title></dc:title>
      </cc:Work>
    </rdf:RDF>
  </metadata>
  <g
     transform="translate(-146.67564,-74.676093)"
     id="layer1">
    <g
       style="font-style:normal;font-variant:normal;font-weight:bold;font-stretch:normal;font-size:32.2887px;font-family:Morganite;-inkscape-font-specification:'Morganite Bold';writing-mode:lr-tb;fill:#ffffff;fill-opacity:1;fill-rule:nonzero;stroke:none;stroke-width:0.352777"
       id="text3792"
       aria-label="PROGRAMAÇÃO">
      <path
         id="path5241"
         style="stroke-width:0.352777"
         d="m 150.71173,78.518448 q 1.45299,0 2.38936,0.904083 0.96866,0.904084 0.96866,2.518519 v 7.329535 q 0,1.582146 -0.93637,2.22792 -0.93637,0.645774 -2.38936,0.645774 h -0.8718 v 8.943971 h -3.19658 V 78.518448 Z m 0.12915,3.906933 q 0,-1.226971 -0.45204,-1.226971 h -0.51662 v 8.265907 h 0.54891 q 0.25831,0 0.32289,-0.290598 0.0969,-0.290598 0.0969,-0.936372 z" />
      <path
         id="path5243"
         style="stroke-width:0.352777"
         d="m 162.20655,87.623861 q 0,1.033239 -0.32289,1.549858 -0.32288,0.48433 -0.80722,0.645774 0.48434,0.129155 0.80722,0.645774 0.32289,0.48433 0.32289,1.517569 v 4.681861 q 0,1.25926 0.0646,2.098766 0.0646,0.839506 0.12915,1.356127 0.0969,0.48433 0.16144,0.71035 0.0646,0.22602 0.0969,0.25831 h -3.22887 q -0.25831,-0.38747 -0.35517,-1.420704 -0.0969,-1.065527 -0.0969,-3.002849 v -4.391263 q 0,-0.645774 -0.0969,-0.936372 -0.0646,-0.322887 -0.32288,-0.322887 h -0.54891 v 10.074075 h -3.19658 V 78.518448 h 4.03608 q 1.453,0 2.38937,0.904083 0.96866,0.904084 0.96866,2.518519 z m -3.64862,1.00095 q 0.25831,0 0.32288,-0.290598 0.0969,-0.290599 0.0969,-0.904084 v -5.004748 q 0,-1.226971 -0.45204,-1.226971 h -0.51662 v 7.426401 z" />
      <path
         id="path5245"
         style="stroke-width:0.352777"
         d="m 166.53324,101.28198 q -0.64577,0 -1.25926,-0.19373 -0.5812,-0.19373 -1.06553,-0.61349 -0.45204,-0.41975 -0.74264,-1.065523 -0.2906,-0.678063 -0.2906,-1.582147 V 81.779607 q 0,-0.904084 0.2906,-1.549858 0.2906,-0.678063 0.74264,-1.097816 0.48433,-0.419753 1.06553,-0.613485 0.61349,-0.193732 1.25926,-0.193732 h 0.64577 q 0.61349,0 1.22697,0.193732 0.61349,0.193732 1.06553,0.613485 0.48433,0.419753 0.77493,1.097816 0.2906,0.645774 0.2906,1.549858 V 97.82709 q 0,0.904084 -0.2906,1.582147 -0.2906,0.645773 -0.77493,1.065523 -0.45204,0.41976 -1.06553,0.61349 -0.61348,0.19373 -1.22697,0.19373 z m 0.2906,-20.277302 q -0.45204,0 -0.45204,1.259259 V 97.34276 q 0,0.678063 0.0969,0.968661 0.0969,0.290598 0.35518,0.290598 h 0.0646 q 0.2583,0 0.35517,-0.290598 0.0969,-0.290598 0.0969,-0.968661 V 82.263937 q 0,-1.259259 -0.45204,-1.259259 z" />
      <path
         id="path5247"
         style="stroke-width:0.352777"
         d="m 174.67,101.28198 q -0.64577,0 -1.25926,-0.19373 -0.58119,-0.19373 -1.06552,-0.61349 -0.45204,-0.41975 -0.74264,-1.065523 -0.2906,-0.678063 -0.2906,-1.582147 V 81.779607 q 0,-0.904084 0.2906,-1.549858 0.2906,-0.678063 0.74264,-1.097816 0.48433,-0.419753 1.06552,-0.613485 0.61349,-0.193732 1.25926,-0.193732 h 0.64578 q 0.61348,0 1.22697,0.193732 0.61348,0.193732 1.06553,0.613485 0.48433,0.419753 0.77492,1.097816 0.2906,0.645774 0.2906,1.549858 v 5.811966 h -3.19658 v -5.359925 q 0,-0.678062 -0.0969,-0.936372 -0.0969,-0.290598 -0.35518,-0.290598 h -0.0646 q -0.25831,0 -0.35517,0.290598 -0.0969,0.25831 -0.0969,0.968661 V 97.34276 q 0,0.678063 0.0969,0.968661 0.0969,0.290598 0.35517,0.290598 h 0.0646 q 0.25831,0 0.35518,-0.290598 0.0969,-0.290598 0.0969,-0.968661 v -2.712251 h -0.61348 v -2.679962 h 3.81006 v 4.746439 0.193732 4.197532 h -1.54985 l -0.35518,-0.74264 q -0.51662,0.45204 -1.03324,0.71035 -0.51662,0.22602 -0.93637,0.22602 z" />
      <path
         id="path5249"
         style="stroke-width:0.352777"
         d="m 186.84287,87.623861 q 0,1.033239 -0.32289,1.549858 -0.32288,0.48433 -0.80721,0.645774 0.48433,0.129155 0.80721,0.645774 0.32289,0.48433 0.32289,1.517569 v 4.681861 q 0,1.25926 0.0646,2.098766 0.0646,0.839506 0.12915,1.356127 0.0969,0.48433 0.16145,0.71035 0.0646,0.22602 0.0969,0.25831 h -3.22887 q -0.25831,-0.38747 -0.35517,-1.420704 -0.0969,-1.065527 -0.0969,-3.002849 v -4.391263 q 0,-0.645774 -0.0969,-0.936372 -0.0646,-0.322887 -0.32289,-0.322887 h -0.54891 v 10.074075 h -3.19658 V 78.518448 h 4.03609 q 1.45299,0 2.38936,0.904083 0.96866,0.904084 0.96866,2.518519 z m -3.64862,1.00095 q 0.25831,0 0.32289,-0.290598 0.0969,-0.290599 0.0969,-0.904084 v -5.004748 q 0,-1.226971 -0.45204,-1.226971 h -0.51662 v 7.426401 z" />
      <path
         id="path5251"
         style="stroke-width:0.352777"
         d="m 192.00907,95.405438 h -1.35613 l -0.41975,5.682812 h -2.74454 l 1.90503,-22.569802 h 4.10067 l 2.03419,22.569802 h -3.06743 z m -1.1624,-2.389364 h 0.96867 l -0.41976,-5.747388 h -0.0969 z" />
      <path
         id="path5253"
         style="stroke-width:0.352777"
         d="m 206.24841,78.518448 v 22.569802 h -2.64767 V 88.560234 h -0.0646 l -1.29155,12.528016 h -2.2925 l -1.22697,-12.528016 h -0.0646 V 101.08825 H 195.9806 V 78.518448 h 4.10067 l 0.96866,10.138652 h 0.0646 l 1.03324,-10.138652 z" />
      <path
         id="path5255"
         style="stroke-width:0.352777"
         d="m 211.22087,95.405438 h -1.35612 l -0.41975,5.682812 h -2.74454 l 1.90503,-22.569802 h 4.10067 l 2.03418,22.569802 h -3.06742 z m -1.16239,-2.389364 h 0.96866 l -0.41975,-5.747388 h -0.0969 z" />
      <path
         id="path5257"
         style="stroke-width:0.352777"
         d="m 216.77456,104.76916 0.32288,-1.45299 q 0.2906,0.19373 0.64578,0.25831 0.38746,0.0969 0.67806,0.0646 0.32289,-0.0323 0.51662,-0.19374 0.19373,-0.16144 0.16144,-0.45204 -0.0646,-0.2906 -0.45204,-0.35517 -0.35517,-0.0646 -0.71035,0.16144 l -0.61348,-0.22602 0.71035,-1.29155 h 0.25831 q -0.61349,-0.0323 -1.1624,-0.25831 -0.5489,-0.22602 -1.00095,-0.64577 -0.41975,-0.419755 -0.67806,-1.033241 -0.25831,-0.645774 -0.25831,-1.517569 V 81.779607 q 0,-0.904084 0.2906,-1.549858 0.2906,-0.678063 0.74264,-1.097816 0.48433,-0.419753 1.06553,-0.613485 0.61348,-0.193732 1.25926,-0.193732 h 0.64577 q 0.61349,0 1.22697,0.193732 0.61349,0.193732 1.06553,0.613485 0.48433,0.419753 0.77493,1.097816 0.29059,0.645774 0.29059,1.549858 v 5.811966 h -3.19658 v -5.359925 q 0,-0.678062 -0.0969,-0.936372 -0.0969,-0.290598 -0.35518,-0.290598 h -0.0646 q -0.25831,0 -0.35517,0.290598 -0.0969,0.25831 -0.0969,0.968661 V 97.34276 q 0,0.678063 0.0969,0.968661 0.0969,0.290598 0.35517,0.290598 h 0.0646 q 0.25831,0 0.35518,-0.290598 0.0969,-0.290598 0.0969,-0.968661 v -5.392213 h 3.19658 v 5.876543 q 0,0.871795 -0.2583,1.517569 -0.25831,0.613486 -0.71036,1.033241 -0.41975,0.41975 -1.00095,0.64577 -0.5489,0.22602 -1.1301,0.25831 h 0.32289 l -0.2906,0.74264 q 0.64577,-0.2906 1.19468,-0.0323 0.54891,0.25831 0.54891,0.96866 0,0.93638 -0.54891,1.453 -0.54891,0.5489 -1.29155,0.71035 -0.74264,0.19373 -1.48528,0.0646 -0.74264,-0.0969 -1.1301,-0.41975 z" />
      <path
         id="path5259"
         style="stroke-width:0.352777"
         d="m 227.97875,101.08825 h 3.06743 l -2.03419,-22.569802 h -4.10067 l -1.90503,22.569802 h 2.74454 l 0.41975,-5.682812 h 1.35613 z m -4.03609,-25.023743 q 0.35518,-0.74264 0.80722,-1.065527 0.48433,-0.322887 0.90408,-0.322887 0.5812,0 1.06553,0.290598 0.48433,0.258309 1.09782,0.258309 0.19373,0 0.35517,-0.09687 0.19373,-0.09687 0.45204,-0.355175 l 1.45299,0.904083 q -0.45204,0.807218 -0.93637,1.097816 -0.45204,0.25831 -0.90408,0.25831 -0.61349,0 -1.09782,-0.25831 -0.45204,-0.25831 -0.90408,-0.25831 -0.25831,0 -0.48433,0.09687 -0.22602,0.06458 -0.48433,0.322887 z m 2.8737,11.204179 h 0.0969 l 0.41975,5.747388 h -0.96866 z" />
      <path
         id="path5261"
         style="stroke-width:0.352777"
         d="m 234.85627,101.28198 q -0.64578,0 -1.25926,-0.19373 -0.5812,-0.19373 -1.06553,-0.61349 -0.45204,-0.41975 -0.74264,-1.065523 -0.2906,-0.678063 -0.2906,-1.582147 V 81.779607 q 0,-0.904084 0.2906,-1.549858 0.2906,-0.678063 0.74264,-1.097816 0.48433,-0.419753 1.06553,-0.613485 0.61348,-0.193732 1.25926,-0.193732 h 0.64577 q 0.61349,0 1.22697,0.193732 0.61349,0.193732 1.06553,0.613485 0.48433,0.419753 0.77493,1.097816 0.2906,0.645774 0.2906,1.549858 V 97.82709 q 0,0.904084 -0.2906,1.582147 -0.2906,0.645773 -0.77493,1.065523 -0.45204,0.41976 -1.06553,0.61349 -0.61348,0.19373 -1.22697,0.19373 z m 0.2906,-20.277302 q -0.45205,0 -0.45205,1.259259 V 97.34276 q 0,0.678063 0.0969,0.968661 0.0969,0.290598 0.35518,0.290598 h 0.0646 q 0.25831,0 0.35518,-0.290598 0.0969,-0.290598 0.0969,-0.968661 V 82.263937 q 0,-1.259259 -0.45205,-1.259259 z" />
    </g>
  </g>
</svg>
