<?xml version="1.0" encoding="UTF-8" standalone="no"?>
<svg
   xmlns:dc="http://purl.org/dc/elements/1.1/"
   xmlns:cc="http://creativecommons.org/ns#"
   xmlns:rdf="http://www.w3.org/1999/02/22-rdf-syntax-ns#"
   xmlns:svg="http://www.w3.org/2000/svg"
   xmlns="http://www.w3.org/2000/svg"
   id="svg2305"
   version="1.1"
   viewBox="0 0 16.419689 26.987499"
   height="26.987499mm"
   width="16.419689mm">
  <defs
     id="defs2299" />
  <metadata
     id="metadata2302">
    <rdf:RDF>
      <cc:Work
         rdf:about="">
        <dc:format>image/svg+xml</dc:format>
        <dc:type
           rdf:resource="http://purl.org/dc/dcmitype/StillImage" />
        <dc:title></dc:title>
      </cc:Work>
    </rdf:RDF>
  </metadata>
  <g
     transform="translate(-186.82587,-111.99434)"
     id="layer1">
    <g
       id="g688"
       transform="matrix(0.35277777,0,0,-0.35277777,195.12391,138.98184)">
      <path
         d="M 0,0 C -0.377,0 -0.755,0.085 -1.105,0.258 -1.959,0.679 -2.5,1.548 -2.5,2.5 v 74 h 5 V 7.57 l 17.478,13.413 3.044,-3.966 -21.5,-16.5 C 1.077,0.175 0.54,0 0,0"
         style="fill:#ffffff;fill-opacity:1;fill-rule:nonzero;stroke:none"
         id="path690" />
    </g>
    <g
       id="g692"
       transform="matrix(0.35277777,0,0,-0.35277777,194.94752,138.98184)">
      <path
         d="m 0,0 c -0.54,0 -1.077,0.175 -1.522,0.517 l -21.5,16.5 3.043,3.966 L -2.5,7.57 V 76.5 h 5 V 2.5 C 2.5,1.548 1.959,0.679 1.105,0.258 0.755,0.085 0.377,0 0,0"
         style="fill:#ffffff;fill-opacity:1;fill-rule:nonzero;stroke:none"
         id="path694" />
    </g>
  </g>
</svg>
