<?xml version="1.0" encoding="UTF-8" standalone="no"?>
<svg
   xmlns:dc="http://purl.org/dc/elements/1.1/"
   xmlns:cc="http://creativecommons.org/ns#"
   xmlns:rdf="http://www.w3.org/1999/02/22-rdf-syntax-ns#"
   xmlns:svg="http://www.w3.org/2000/svg"
   xmlns="http://www.w3.org/2000/svg"
   id="svg5124"
   version="1.1"
   viewBox="0 0 181.14626 60.2789"
   height="60.2789mm"
   width="181.14626mm">
  <defs
     id="defs5118" />
  <metadata
     id="metadata5121">
    <rdf:RDF>
      <cc:Work
         rdf:about="">
        <dc:format>image/svg+xml</dc:format>
        <dc:type
           rdf:resource="http://purl.org/dc/dcmitype/StillImage" />
        <dc:title></dc:title>
      </cc:Work>
    </rdf:RDF>
  </metadata>
  <g
     transform="translate(-120.33758,-12.949835)"
     id="layer1">
    <g
       style="font-style:italic;font-variant:normal;font-weight:bold;font-stretch:normal;font-size:68.1752px;font-family:Morganite;-inkscape-font-specification:Morganite-Black;writing-mode:lr-tb;fill:#ffffff;fill-opacity:1;fill-rule:nonzero;stroke:none;stroke-width:0.305625"
       id="text3796"
       transform="scale(0.86634303,1.1542772)"
       aria-label="TE QUERO ELEITA">
      <path
         id="path5134"
         style="font-style:normal;font-variant:normal;font-weight:bold;font-stretch:normal;font-family:Morganite;-inkscape-font-specification:'Morganite Bold';stroke-width:0.305625"
         d="m 155.19679,17.286592 h -4.70408 v 41.995924 h -6.81752 V 17.286592 h -4.77227 v -5.658541 h 16.29387 z" />
      <path
         id="path5136"
         style="font-style:normal;font-variant:normal;font-weight:bold;font-stretch:normal;font-family:Morganite;-inkscape-font-specification:'Morganite Bold';stroke-width:0.305625"
         d="m 162.96874,17.286592 v 15.680297 h 4.49956 v 5.044965 h -4.49956 v 15.612121 h 6.20394 v 5.658541 H 156.21939 V 11.628051 h 12.40789 v 5.658541 z" />
      <path
         id="path5138"
         style="font-style:normal;font-variant:normal;font-weight:bold;font-stretch:normal;font-family:Morganite;-inkscape-font-specification:'Morganite Bold';stroke-width:0.305625"
         d="m 184.03483,59.691568 q -1.3635,0 -2.65883,-0.409052 -1.22715,-0.409051 -2.24978,-1.295328 -0.95445,-0.886278 -1.56803,-2.249782 -0.61358,-1.431679 -0.61358,-3.340585 V 18.513746 q 0,-1.908906 0.61358,-3.27241 0.61358,-1.431679 1.56803,-2.317956 1.02263,-0.886278 2.24978,-1.295329 1.29533,-0.409052 2.65883,-0.409052 h 1.36351 q 1.29533,0 2.59066,0.409052 1.29532,0.409051 2.24978,1.295329 1.02263,0.886277 1.6362,2.317956 0.61358,1.363504 0.61358,3.27241 v 33.883075 q 0,1.908906 -0.61358,3.27241 -0.5454,1.295329 -1.49985,2.249781 l 2.1816,2.181607 -3.34058,3.340585 -3.68146,-3.749636 h -0.13635 z m 0.61358,-42.814027 q -0.95445,0 -0.95445,2.658833 v 31.837819 q 0,1.431679 0.20452,2.045256 0.20453,0.613577 0.74993,0.613577 h 0.13635 q 0.5454,0 0.74993,-0.613577 0.20452,-0.613577 0.20452,-2.045256 V 19.536374 q 0,-2.658833 -0.95445,-2.658833 z" />
      <path
         id="path5140"
         style="font-style:normal;font-variant:normal;font-weight:bold;font-stretch:normal;font-family:Morganite;-inkscape-font-specification:'Morganite Bold';stroke-width:0.305625"
         d="m 201.41949,59.691568 q -1.29533,0 -2.59066,-0.409052 -1.29532,-0.409051 -2.31795,-1.295328 -1.02263,-0.886278 -1.63621,-2.249782 -0.61357,-1.431679 -0.61357,-3.340585 v -40.76877 h 6.74934 v 39.746142 q 0,1.431679 0.20453,2.045256 0.20452,0.613577 0.74992,0.613577 h 0.20453 q 0.5454,0 0.68175,-0.613577 0.20453,-0.613577 0.20453,-2.045256 V 11.628051 h 6.81752 v 40.76877 q 0,1.908906 -0.61358,3.340585 -0.61358,1.363504 -1.6362,2.249782 -0.95446,0.886277 -2.24979,1.295328 -1.29533,0.409052 -2.65883,0.409052 z" />
      <path
         id="path5142"
         style="font-style:normal;font-variant:normal;font-weight:bold;font-stretch:normal;font-family:Morganite;-inkscape-font-specification:'Morganite Bold';stroke-width:0.305625"
         d="m 218.19056,17.286592 v 15.680297 h 4.49956 v 5.044965 h -4.49956 v 15.612121 h 6.20394 v 5.658541 H 211.44121 V 11.628051 h 12.40789 v 5.658541 z" />
      <path
         id="path5144"
         style="font-style:normal;font-variant:normal;font-weight:bold;font-stretch:normal;font-family:Morganite;-inkscape-font-specification:'Morganite Bold';stroke-width:0.305625"
         d="m 241.23374,30.853457 q 0,2.181607 -0.68176,3.27241 -0.68175,1.022628 -1.70438,1.363504 1.02263,0.272701 1.70438,1.363504 0.68176,1.022628 0.68176,3.204235 v 9.885404 q 0,2.658833 0.13635,4.431388 0.13635,1.772555 0.2727,2.863358 0.20452,1.022628 0.34087,1.499855 0.13635,0.477226 0.20453,0.545401 h -6.81752 q -0.5454,-0.818102 -0.74993,-2.999708 -0.20452,-2.249782 -0.20452,-6.340294 v -9.271828 q 0,-1.363504 -0.20453,-1.97708 -0.13635,-0.681752 -0.68175,-0.681752 h -1.15898 v 21.270662 h -6.74935 V 11.628051 h 8.52191 q 3.06788,0 5.04496,1.908905 2.04526,1.908906 2.04526,5.317666 z m -7.7038,2.113432 q 0.5454,0 0.68175,-0.613577 0.20453,-0.613577 0.20453,-1.908906 V 19.87725 q 0,-2.590658 -0.95446,-2.590658 h -1.0908 v 15.680297 z" />
      <path
         id="path5146"
         style="font-style:normal;font-variant:normal;font-weight:bold;font-stretch:normal;font-family:Morganite;-inkscape-font-specification:'Morganite Bold';stroke-width:0.305625"
         d="m 250.3692,59.691568 q -1.3635,0 -2.65883,-0.409052 -1.22716,-0.409051 -2.24978,-1.295328 -0.95446,-0.886278 -1.56803,-2.249782 -0.61358,-1.431679 -0.61358,-3.340585 V 18.513746 q 0,-1.908906 0.61358,-3.27241 0.61357,-1.431679 1.56803,-2.317956 1.02262,-0.886278 2.24978,-1.295329 1.29533,-0.409052 2.65883,-0.409052 h 1.3635 q 1.29533,0 2.59066,0.409052 1.29533,0.409051 2.24978,1.295329 1.02263,0.886277 1.63621,2.317956 0.61357,1.363504 0.61357,3.27241 v 33.883075 q 0,1.908906 -0.61357,3.340585 -0.61358,1.363504 -1.63621,2.249782 -0.95445,0.886277 -2.24978,1.295328 -1.29533,0.409052 -2.59066,0.409052 z m 0.61358,-42.814027 q -0.95446,0 -0.95446,2.658833 v 31.837819 q 0,1.431679 0.20453,2.045256 0.20453,0.613577 0.74993,0.613577 h 0.13635 q 0.5454,0 0.74992,-0.613577 0.20453,-0.613577 0.20453,-2.045256 V 19.536374 q 0,-2.658833 -0.95445,-2.658833 z" />
      <path
         id="path5148"
         style="font-style:normal;font-variant:normal;font-weight:bold;font-stretch:normal;font-family:Morganite;-inkscape-font-specification:'Morganite Bold';stroke-width:0.305625"
         d="m 273.75324,17.286592 v 15.680297 h 4.49956 v 5.044965 h -4.49956 v 15.612121 h 6.20394 v 5.658541 H 267.00389 V 11.628051 h 12.40789 v 5.658541 z" />
      <path
         id="path5150"
         style="font-style:normal;font-variant:normal;font-weight:bold;font-stretch:normal;font-family:Morganite;-inkscape-font-specification:'Morganite Bold';stroke-width:0.305625"
         d="m 287.93366,11.628051 v 42.609501 h 5.52219 v 5.044964 H 281.18431 V 11.628051 Z" />
      <path
         id="path5152"
         style="font-style:normal;font-variant:normal;font-weight:bold;font-stretch:normal;font-family:Morganite;-inkscape-font-specification:'Morganite Bold';stroke-width:0.305625"
         d="m 301.22779,17.286592 v 15.680297 h 4.49956 v 5.044965 h -4.49956 v 15.612121 h 6.20394 v 5.658541 H 294.47844 V 11.628051 h 12.40789 v 5.658541 z" />
      <path
         id="path5154"
         style="font-style:normal;font-variant:normal;font-weight:bold;font-stretch:normal;font-family:Morganite;-inkscape-font-specification:'Morganite Bold';stroke-width:0.305625"
         d="m 315.40821,11.628051 v 47.654465 h -6.74935 V 11.628051 Z" />
      <path
         id="path5156"
         style="font-style:normal;font-variant:normal;font-weight:bold;font-stretch:normal;font-family:Morganite;-inkscape-font-specification:'Morganite Bold';stroke-width:0.305625"
         d="m 332.65651,17.286592 h -4.70409 V 59.282516 H 321.1349 V 17.286592 h -4.77226 v -5.658541 h 16.29387 z" />
      <path
         id="path5158"
         style="font-style:normal;font-variant:normal;font-weight:bold;font-stretch:normal;font-family:Morganite;-inkscape-font-specification:'Morganite Bold';stroke-width:0.305625"
         d="m 340.56482,47.283681 h -2.86336 l -0.88628,11.998835 h -5.79489 l 4.02234,-47.654465 h 8.65825 l 4.29504,47.654465 h -6.47665 z m -2.45431,-5.044965 h 2.04526 L 339.26949,30.10353 h -0.20452 z" />
    </g>
  </g>
</svg>
