<?xml version="1.0" encoding="UTF-8" standalone="no"?>
<svg
   xmlns:dc="http://purl.org/dc/elements/1.1/"
   xmlns:cc="http://creativecommons.org/ns#"
   xmlns:rdf="http://www.w3.org/1999/02/22-rdf-syntax-ns#"
   xmlns:svg="http://www.w3.org/2000/svg"
   xmlns="http://www.w3.org/2000/svg"
   id="svg3620"
   version="1.1"
   viewBox="0 0 39.279194 15.217739"
   height="15.217739mm"
   width="39.279194mm">
  <defs
     id="defs3614" />
  <metadata
     id="metadata3617">
    <rdf:RDF>
      <cc:Work
         rdf:about="">
        <dc:format>image/svg+xml</dc:format>
        <dc:type
           rdf:resource="http://purl.org/dc/dcmitype/StillImage" />
        <dc:title></dc:title>
      </cc:Work>
    </rdf:RDF>
  </metadata>
  <g
     transform="translate(52.14555,-226.73637)"
     id="layer1">
    <g
       id="g138"
       transform="matrix(0.35277777,0,0,-0.35277777,-52.126147,226.73637)">
      <path
         d="m 0,0 2.43,-0.003 -0.007,-4.886 -2.43,0.003 z m -0.021,-9.647 2.43,-0.003 -0.034,-24.941 -2.43,0.004 z"
         style="fill:#f20063;fill-opacity:1;fill-rule:nonzero;stroke:none"
         id="path140" />
    </g>
    <g
       id="g142"
       transform="matrix(0.35277777,0,0,-0.35277777,-49.899096,232.66536)">
      <path
         d="M 0,0 C 0.006,4.213 0.008,5.886 -0.04,7.151 L 2.267,7.148 c 0.107,-0.71 0.105,-1.629 0.112,-2.439 0.653,1.693 1.949,2.833 4.189,2.83 1.84,-0.003 3.268,-0.738 3.785,-3.023 0.694,1.637 1.993,3.015 4.469,3.011 2.25,-0.003 4.529,-0.91 4.522,-5.674 l -0.026,-19.669 -2.43,0.004 0.026,19.093 C 16.917,3.39 16.59,5.232 14.261,5.236 11.501,5.239 10.894,2.636 10.89,-0.217 L 10.866,-17.804 8.428,-17.801 8.454,1.027 C 8.458,4.006 7.765,5.244 5.718,5.247 3.076,5.25 2.434,2.564 2.429,-0.598 l -0.023,-17.195 -2.43,0.003 z"
         style="fill:#f20063;fill-opacity:1;fill-rule:nonzero;stroke:none"
         id="path144" />
    </g>
    <g
       id="g146"
       transform="matrix(0.35277777,0,0,-0.35277777,-41.874074,238.95197)">
      <path
         d="M 0,0 0.009,6.394 2.487,6.39 2.479,-0.003 Z"
         style="fill:#f20063;fill-opacity:1;fill-rule:nonzero;stroke:none"
         id="path148" />
    </g>
    <g
       id="g150"
       transform="matrix(0.35277777,0,0,-0.35277777,-36.098219,236.33577)">
      <path
         d="m 0,0 0.015,10.763 c 0.004,3.219 -1.183,4.422 -2.844,4.424 -2.86,0.004 -3.567,-2.481 -3.572,-5.836 l -0.011,-8.11 c -0.004,-3.008 0.391,-6.16 3.325,-6.164 C -0.901,-4.926 -0.004,-3.155 0,0 m -6.389,-5.311 -0.014,-10.615 -3.15,0.005 0.035,26.371 c 0.005,3.438 0.008,5.657 -0.039,7.258 l 2.998,-0.004 c 0.067,-0.543 0.133,-1.509 0.131,-2.735 0.603,1.698 1.947,3.128 4.538,3.124 3.426,-0.004 5.094,-2.296 5.087,-7.27 L 3.182,0.078 c -0.007,-5.517 -2.214,-7.914 -5.446,-7.91 -2.579,0.003 -3.624,1.348 -4.125,2.521"
         style="fill:#f20063;fill-opacity:1;fill-rule:nonzero;stroke:none"
         id="path152" />
    </g>
    <g
       id="g154"
       transform="matrix(0.35277777,0,0,-0.35277777,-29.376813,236.56418)">
      <path
         d="m 0,0 c -0.004,-3.267 -0.008,-5.619 0.04,-6.817 l -3.356,0.005 c -0.072,0.464 -0.142,1.734 -0.141,2.622 -0.782,-2.283 -2.374,-3.016 -4.537,-3.013 -2.072,0.003 -4.91,0.813 -4.902,6.45 l 0.026,19.186 3.523,-0.005 -0.025,-18.262 c -0.004,-2.992 0.801,-4.169 2.671,-4.172 1.771,-0.002 3.174,1.064 3.18,5.881 l 0.023,16.545 3.523,-0.005 z"
         style="fill:#f20063;fill-opacity:1;fill-rule:nonzero;stroke:none"
         id="path156" />
    </g>
    <g
       id="g158"
       transform="matrix(0.35277777,0,0,-0.35277777,-28.135883,238.97078)">
      <path
         d="M 0,0 0.047,34.561 4.487,34.555 4.44,-0.006 Z"
         style="fill:#f20063;fill-opacity:1;fill-rule:nonzero;stroke:none"
         id="path160" />
    </g>
    <g
       id="g162"
       transform="matrix(0.35277777,0,0,-0.35277777,-23.355145,235.99403)">
      <path
         d="m 0,0 -0.001,-1.224 c -0.002,-1.443 0.293,-2.64 1.618,-2.641 0.978,-0.002 1.472,0.619 1.474,2.016 0.002,1.42 -0.341,2.404 -3.424,4.371 -3.896,2.477 -5.454,4.362 -5.448,8.149 0.006,4.771 2.627,7.377 7.466,7.371 5.826,-0.008 7.434,-3.212 7.427,-7.628 L 9.111,9.3 3.236,9.308 3.238,10.892 C 3.24,12.542 2.786,13.12 1.832,13.121 0.866,13.123 0.454,12.419 0.452,11.23 0.45,10.011 0.982,9.398 3.226,8.01 8.052,5.012 9.499,2.916 9.494,-0.966 9.486,-6.077 7.219,-8.88 1.583,-8.873 c -6.676,0.009 -7.695,4.146 -7.69,7.915 l 0.002,0.966 z"
         style="fill:#f20063;fill-opacity:1;fill-rule:nonzero;stroke:none"
         id="path164" />
    </g>
    <g
       id="g166"
       transform="matrix(0.35277777,0,0,-0.35277777,-15.763013,234.8437)">
      <path
         d="M 0,0 H -0.347 C -1.636,0.002 -2.38,-0.889 -2.383,-2.971 v -0.198 c -0.003,-2.032 0.492,-2.578 1.235,-2.579 0.843,-10e-4 1.141,0.742 1.143,2.08 z m 7.973,-4.917 c -0.005,-3.718 0.091,-5.502 0.238,-6.841 l -7.533,0.01 c -0.247,0.397 -0.394,1.587 -0.443,2.082 -1.193,-1.881 -2.978,-2.424 -4.811,-2.421 -4.114,0.005 -5.695,3.675 -5.69,7.888 l 10e-4,0.545 c 0.01,7.038 4.671,8.668 9.875,8.66 H 0.007 L 0.011,7.98 C 0.013,9.417 -0.333,9.765 -1.027,9.766 -1.721,9.767 -2.069,9.321 -2.071,7.735 l -0.002,-1.09 -7.385,0.009 10e-4,0.694 c 0.008,5.948 3.233,8.026 8.833,8.018 5.254,-0.008 8.622,-1.945 8.615,-7.05 z"
         style="fill:#f20063;fill-opacity:1;fill-rule:nonzero;stroke:none"
         id="path168" />
    </g>
  </g>
</svg>
